<?xml version="1.0" encoding="UTF-8"?>
<svg width="22px" height="22px" viewBox="0 0 22 22" version="1.1" xmlns="http://www.w3.org/2000/svg" xmlns:xlink="http://www.w3.org/1999/xlink">
    <title>画板</title>
    <g id="画板" stroke="none" stroke-width="1" fill="none" fill-rule="evenodd">
        <g id="下载" fill-rule="nonzero">
            <path d="M15.092,16.324 C17.424,16.324 19.58,16.94 21.472,17.996 C20.46,20.328 18.128,22 15.4,22 L6.6,22 C5.896,22 5.236,21.912 4.62,21.692 C6.952,18.436 10.78,16.324 15.092,16.324 Z" id="形状结合" fill="#FC5322"></path>
            <path d="M15.092,9.724 C17.512,9.724 19.844,10.164 22,11 L22,15.4 C22,16.324 21.824,17.204 21.472,17.996 C19.58,16.94 17.424,16.324 15.092,16.324 C10.78,16.324 6.952,18.436 4.62,21.736 C2.376,20.988 0.616,19.096 0.132,16.72 C3.696,12.452 9.064,9.724 15.092,9.724 Z" id="形状结合_1_" fill="#FC7822"></path>
            <path d="M15.092,3.124 C17.292,3.124 19.404,3.388 21.428,3.916 C21.824,4.752 22,5.676 22,6.644 L22,11 C19.844,10.208 17.512,9.724 15.092,9.724 C9.064,9.724 3.696,12.452 0.132,16.72 C0.044,16.28 0,15.84 0,15.4 L0,7.92 C4.268,4.884 9.46,3.124 15.092,3.124 Z" id="形状结合_2_" fill="#FFA41C"></path>
            <path d="M15.4,0 C18.128,0 20.46,1.628 21.472,3.96 C19.448,3.432 17.292,3.168 15.092,3.168 C9.46,3.168 4.268,4.972 0,8.008 L0,6.6 C0,2.948 2.948,0 6.6,0 L15.4,0 Z" id="形状结合_3_" fill="#FFCA5E"></path>
            <path d="M5.148,14.96 L5.632,13.596 L8.58,13.596 L9.064,14.96 L11.264,14.96 L8.228,6.996 L5.984,6.996 L2.948,14.96 L5.148,14.96 Z M8.008,12.012 L6.16,12.012 L7.084,9.372 L8.008,12.012 Z M15.048,14.96 C15.576,14.96 16.104,14.872 16.588,14.652 C17.072,14.432 17.468,14.124 17.82,13.772 C18.172,13.42 18.436,12.98 18.656,12.496 C18.876,12.012 18.964,11.528 18.964,11 C18.964,10.472 18.876,9.988 18.656,9.504 C18.436,9.02 18.172,8.58 17.82,8.228 C17.468,7.876 17.028,7.568 16.588,7.348 C16.104,7.128 15.62,7.04 15.048,7.04 L15.048,7.04 L11.968,7.04 L11.968,14.96 L15.048,14.96 Z M14.52,13.2 L14.036,13.2 L14.036,8.756 L14.52,8.756 C14.872,8.756 15.18,8.8 15.488,8.932 C15.752,9.064 16.016,9.196 16.192,9.416 C16.368,9.592 16.544,9.856 16.632,10.12 C16.72,10.384 16.808,10.692 16.808,11 C16.808,11.308 16.764,11.616 16.676,11.88 C16.588,12.144 16.412,12.364 16.236,12.584 C16.06,12.76 15.796,12.936 15.532,13.068 C15.18,13.156 14.872,13.2 14.52,13.2 L14.52,13.2 Z" id="AD" fill="#FFFFFF"></path>
        </g>
    </g>
</svg>